<?xml version="1.0" encoding="utf-8"?>
<!-- Generator: Adobe Illustrator 25.2.0, SVG Export Plug-In . SVG Version: 6.00 Build 0)  -->
<svg version="1.1" id="Layer_1" xmlns="http://www.w3.org/2000/svg" xmlns:xlink="http://www.w3.org/1999/xlink" x="0px" y="0px"
	 viewBox="0 0 1481.63 449.83" style="enable-background:new 0 0 1481.63 449.83;" xml:space="preserve">
<style type="text/css">
	.st0{fill:#0FF280;}
	.st1{fill:#132646;}
</style>
<polygon points="1481.61,0 1481.62,0.01 1481.63,0 "/>
<path class="st0" d="M1202.54,121.33c0,0-24.23-53-91.31-53h113.23C1224.46,68.33,1232.2,95.54,1202.54,121.33"/>
<path class="st1" d="M125.8,235.24c17.37,0,32.2-6.77,40.67-16.1l50.83,29.23c-20.76,28.8-52.11,43.63-92.35,43.63
	C52.51,292.01,7.6,243.29,7.6,180.17c0-63.12,45.75-111.84,112.69-111.84c61.85,0,107.61,47.87,107.61,111.84
	c0,8.9-0.85,17.37-2.55,25.42H74.96C83.01,227.62,102.49,235.24,125.8,235.24 M164.77,158.14c-6.78-24.57-25.84-33.47-44.91-33.47
	c-24.14,0-40.24,11.86-46.17,33.47H164.77z"/>
<path class="st1" d="M465.48,156.02v130.06h-63.55V165.34c0-26.27-16.52-38.55-36.86-38.55c-23.3,0-39.4,13.56-39.4,43.64v115.65
	h-63.55V74.26h63.55v19.91c11.44-15.67,32.62-25.84,60.58-25.84C429.05,68.33,465.48,98.83,465.48,156.02"/>
<rect x="904.61" y="4.44" class="st1" width="63.55" height="288.73"/>
<path class="st0" d="M1060.59,338.33h50.64c27.97,0,50.64-22.67,50.64-50.64c27.97,0,50.64,22.67,50.64,50.64
	c0,27.97-22.67,50.64-50.64,50.64h-50.64c-27.97,0-50.64,22.67-50.64,50.64c-27.97,0-50.64-22.67-50.64-50.64
	C1009.95,361,1032.62,338.33,1060.59,338.33"/>
<path class="st1" d="M587.22,135.26c14.1,0,25.53-11.43,25.53-25.53V74.26h-43.64V4.44h-63.55v69.82v60.32v0.69v74.98
	c0,59.31,24.15,84.3,107.18,75.83v-57.61c-27.96,1.69-43.64,0-43.64-18.22v-74.98H587.22z"/>
<path class="st1" d="M1110.66,68.91c-62.28,0-112.27,48.71-112.27,111.84c0,63.12,49.99,111.84,112.27,111.84
	c62.27,0,112.26-48.72,112.26-111.84C1222.92,117.62,1172.93,68.91,1110.66,68.91 M1110.66,238.49c-31.89,0-57.74-25.85-57.74-57.74
	c0-31.89,25.85-57.74,57.74-57.74s57.74,25.85,57.74,57.74C1168.4,212.64,1142.55,238.49,1110.66,238.49"/>
<path class="st1" d="M800.24,68.33v13.9c-15.68-8.15-33.59-12.74-52.66-12.74c-62.28,0-112.27,48.72-112.27,111.84
	c0,63.12,49.99,111.84,112.27,111.84c19.07,0,36.98-4.59,52.66-12.74v11.58h59.6V68.33H800.24z M747.58,239.07
	c-31.89,0-57.74-25.85-57.74-57.74c0-31.89,25.85-57.74,57.74-57.74c23.45,0,43.62,13.99,52.66,34.07v0.96
	c2.99,6.97,4.64,14.65,4.64,22.71c0,8.06-1.66,15.74-4.64,22.71V205C791.2,225.08,771.03,239.07,747.58,239.07"/>
<g>
	<path class="st1" d="M1414.47,180.17c0,0.19,0.01,0.38,0.01,0.58c0,32-25.94,57.94-57.94,57.94c-32,0-57.94-25.94-57.94-57.94
		c0-18.6,8.78-35.14,22.4-45.74l-31.38-44.61c-27.61,20.49-45.51,53.33-45.51,90.35c0,62.09,50.34,112.43,112.43,112.43
		c60.79,0,110.3-48.25,112.36-108.54L1414.47,180.17z"/>
	<path class="st0" d="M1356.55,68.32c-25.07,0-48.22,8.21-66.92,22.08l31.38,44.61c9.81-7.64,22.14-12.19,35.54-12.19
		c31.8,0,57.61,25.63,57.92,57.36l54.43,4.47c0.04-1.29,0.07-2.59,0.07-3.89C1468.98,118.66,1418.64,68.32,1356.55,68.32z"/>
</g>
</svg>
