<?xml version="1.0" encoding="utf-8"?>
<!-- Generator: Adobe Illustrator 25.2.0, SVG Export Plug-In . SVG Version: 6.00 Build 0)  -->
<svg version="1.1" id="Layer_1" xmlns="http://www.w3.org/2000/svg" xmlns:xlink="http://www.w3.org/1999/xlink" x="0px" y="0px"
	 viewBox="0 0 511.27 511.27" style="enable-background:new 0 0 511.27 511.27;" xml:space="preserve">
<style type="text/css">
	.st0{fill:#F75226;}
	.st1{fill:#FFD15C;}
</style>
<path class="st0" d="M132.79,465.32c-23.47-26.67-31.07-25.58-53.05-72.95c-14.93-35.2-20.44-90.5-12.97-128.9
	s24.53-74.67,49.07-105.6c-2.13,26.67,7.47,54.4,25.6,74.67c-10.67-51.2,6.4-106.67,40.53-147.2S263.03,18.13,312.1,0
	c-24.53,25.6-27.73,66.13-18.13,100.27c9.6,34.13,29.87,64,48,94.93s35.2,62.93,36.27,98.13c9.6-18.13,20.27-36.27,26.67-56.53
	c6.4-20.27,9.6-41.6,4.27-61.87c19.2,23.47,29.87,46.93,35.2,76.8s4.27,60.8,1.07,90.67c-4.27,33.07-12.8,67.2-30.93,94.93
	c-21.33,33.07-55.47,56.53-92.8,69.33C255.57,518.4,177.51,509.65,132.79,465.32z"/>
<path class="st1" d="M221.43,504.53C308.9,538.67,395.3,435.2,347.3,355.2c0-1.07-1.07-1.07-1.07-2.13
	c4.27,43.73-6.4,75.73-26.67,93.87c10.67-25.6,3.2-55.47-9.6-81.07c-12.8-24.53-30.93-46.93-44.8-70.4
	c-13.87-24.53-24.53-52.27-18.13-80c-25.6,19.2-43.73,48-51.2,78.93s-3.2,65.07,10.67,93.87c-16-11.73-27.73-30.93-28.8-51.2
	c-17.07,20.27-27.73,46.93-26.67,73.6C151.03,452.27,184.1,489.6,221.43,504.53z"/>
</svg>
