<svg xmlns="http://www.w3.org/2000/svg" width="85.4" height="85.4" viewBox="0 0 85.4 85.4">
  <g id="Group_17" data-name="Group 17" transform="translate(-1226 181)">
    <circle id="Ellipse_8" data-name="Ellipse 8" cx="42.7" cy="42.7" r="42.7" transform="translate(1226 -181)" fill="#14e3dc" opacity="0.17"/>
    <path id="Path_23" data-name="Path 23" d="M18.4,18.4H68.6V68.6H18.4Z" transform="translate(1225.2 -181.8)" fill="none"/>
    <path id="insights_FILL1_wght400_GRAD0_opsz48" d="M5.5,40.5a3.372,3.372,0,0,1-2.475-1.025,3.5,3.5,0,0,1,0-4.95A3.372,3.372,0,0,1,5.5,33.5q.25,0,.5.025a4.767,4.767,0,0,1,.65.125l10-10a4.767,4.767,0,0,1-.125-.65q-.025-.25-.025-.5a3.5,3.5,0,0,1,5.975-2.475A3.372,3.372,0,0,1,23.5,22.5q0,.1-.15,1.15l5.5,5.5a4.767,4.767,0,0,1,.65-.125Q29.75,29,30,29t.5.025a4.767,4.767,0,0,1,.65.125l8-8a4.767,4.767,0,0,1-.125-.65Q39,20.25,39,20a3.5,3.5,0,1,1,3.5,3.5q-.25,0-.5-.025a4.767,4.767,0,0,1-.65-.125l-8,8a4.767,4.767,0,0,1,.125.65q.025.25.025.5a3.5,3.5,0,1,1-7,0q0-.25.025-.5a4.767,4.767,0,0,1,.125-.65l-5.5-5.5a4.767,4.767,0,0,1-.65.125Q20.25,26,20,26q-.1,0-1.15-.15l-10,10a4.767,4.767,0,0,1,.125.65Q9,36.75,9,37a3.372,3.372,0,0,1-1.025,2.475A3.372,3.372,0,0,1,5.5,40.5ZM30,15.85l-1.55-3.3L25.15,11l3.3-1.55L30,6.15l1.55,3.3L34.85,11l-3.3,1.55ZM8,18.4,7,16.2l-2.2-1,2.2-1L8,12l1,2.2,2.2,1L9,16.2Z" transform="translate(1244.7 -161.625)" fill="#14e3dc"/>
  </g>
</svg>
