<svg id="Capa_1" enable-background="new 0 0 512 512" height="512" viewBox="0 0 512 512" width="512" xmlns="http://www.w3.org/2000/svg" xmlns:xlink="http://www.w3.org/1999/xlink"><linearGradient id="SVGID_1_" gradientUnits="userSpaceOnUse" x1="285.345" x2="285.345" y1="378.311" y2="75"><stop offset="0" stop-color="#c3ffe8"/><stop offset=".9973" stop-color="#f0fff4"/></linearGradient><linearGradient id="SVGID_2_" gradientUnits="userSpaceOnUse" x1="256" x2="256" y1="512" y2="0"><stop offset="0" stop-color="#00b59c"/><stop offset="1" stop-color="#9cffac"/></linearGradient><g><g><g><path d="m317 75c-66.182 0-120 53.833-120 120s53.818 120 120 120 120-53.833 120-120-53.818-120-120-120zm-137.871 236.675-41.045 41.03c-5.859 5.859-5.859 15.352 0 21.211 5.859 5.86 15.352 5.859 21.211 0l41.045-41.03c5.859-5.859 5.859-15.352 0-21.211s-15.352-5.86-21.211 0z" fill="url(#SVGID_1_)"/></g></g><g><g><path d="m317 180c-8.401 0-15 6.599-15 15s6.599 15 15 15 15-6.599 15-15-6.599-15-15-15zm0-180c-107.402 0-195 87.599-195 195s87.598 195 195 195 195-87.599 195-195-87.598-195-195-195zm60 240c-11.7 0-21.899-4.501-30-11.7-8.101 7.2-18.3 11.7-30 11.7-24.902 0-45-20.099-45-45s20.098-45 45-45 45 20.099 45 45c0 8.401 6.599 15 15 15s15-6.599 15-15c0-41.4-33.6-75-75-75s-75 33.6-75 75 33.6 75 75 75c8.701 0 17.102-1.5 24.902-4.2 7.8-2.699 16.498 1.201 19.197 9 2.703 7.8-1.201 16.501-9.001 19.2-11.396 3.9-23.097 6-35.098 6-57.898 0-105-47.1-105-105s47.102-105 105-105 105 47.1 105 105c0 24.901-20.098 45-45 45zm-238.916 91.494c-5.859-5.859-15.352-5.859-21.211 0l-112.478 112.479c-5.859 5.859-5.859 15.352 0 21.211l42.422 42.422c5.86 5.859 15.352 5.859 21.211 0l112.479-112.479c5.859-5.859 5.859-15.352 0-21.211z" fill="url(#SVGID_2_)"/></g></g></g></svg>