<svg xmlns="http://www.w3.org/2000/svg" viewBox="0 0 560.6 135.7"><defs><style>.a,.c{opacity:0.87;}.b{fill:#cbdb29;}.c{isolation:isolate;}</style></defs><title>kickbox-logo</title><g class="a"><path d="M175.1,44.7,175,71.2l23-26.4,22.7.1L195,72.3l25.8,44.4-22.7-.1L185,92.3c-2.7-4.9-5-6.9-7-6.2s-3,1.8-3,3.2v27.3l-18.9-.1.2-92.9H166a8.91,8.91,0,0,1,6.5,2.7,8.58,8.58,0,0,1,2.7,6.2Z"/><path d="M222.2,43l19.5.1-.2,73.6-19.5-.1Zm18.3-24.7H224.3a1.58,1.58,0,0,0-1.6,1.6V36.1a1.58,1.58,0,0,0,1.6,1.6h16.2a1.58,1.58,0,0,0,1.6-1.6V19.9A1.81,1.81,0,0,0,240.5,18.3Z"/><path d="M293,69.6a17.53,17.53,0,0,0-2.8-7.4c-2.2-3-5.5-4.5-10.1-4.5-6.5,0-11,3.2-13.4,9.6-1.3,3.4-1.9,7.9-1.9,13.6,0,5.4.6,9.7,1.9,13,2.3,6.1,6.6,9.2,13,9.2q6.75,0,9.6-3.6a18,18,0,0,0,3.5-9.4l19.7.1a32.28,32.28,0,0,1-6.4,16.6c-6.1,8.4-15,12.6-26.9,12.6s-20.6-3.6-26.1-10.6-8.3-16.2-8.3-27.3c0-12.6,3.1-22.4,9.3-29.5s14.7-10.5,25.6-10.5c9.2,0,16.8,2.1,22.7,6.3s9.3,11.5,10.4,22Z"/><path d="M416.8,52.5Q408.55,42,394,42c-5.4,0-9.8,1.1-13.3,3.3a27.11,27.11,0,0,0-8.1,7.8l-.2-3.4-.1-33.9h-9.7a8.91,8.91,0,0,0-6.5,2.7,8.58,8.58,0,0,0-2.7,6.2v11h0l-.1,35.5L330.5,45.1l-22.7.1,25.7,27.5-25.8,44.4,22.7-.1,13.2-24.4c2.7-4.9,5-6.9,7-6.2a4.55,4.55,0,0,1,2.6,1.9l-.1,28.7,19,.1v-.2h.4v-8.5a26.74,26.74,0,0,0,6.8,7c3.7,2.4,8.6,3.7,14.7,3.7,9.7,0,17.3-3.7,22.8-11.2s8.2-17,8.2-28.4C425.1,68.5,422.3,59.5,416.8,52.5ZM402.4,97.3a13.48,13.48,0,0,1-11.7,6c-5.8,0-10.1-2.1-12.9-6.2s-4.2-9.4-4.2-15.7c0-5.4.7-9.7,2.1-13.1,2.7-6.3,7.5-9.5,14.5-9.5s11.7,3.3,14.3,9.8c1.4,3.4,2,7.8,2,13C406.6,88,405.2,93.3,402.4,97.3Z"/><path d="M488.4,108.5c-6.2,7.7-15.7,11.5-28.3,11.4S438,116,431.8,108.3s-9.3-16.9-9.2-27.7A43.11,43.11,0,0,1,432,53c6.2-7.8,15.7-11.6,28.3-11.6s22.1,4,28.3,11.8a42.39,42.39,0,0,1,9.2,27.6C497.8,91.6,494.6,100.8,488.4,108.5ZM473,97.8c3-4,4.6-9.7,4.6-17.1s-1.5-13.1-4.5-17-7.3-6-13-6-10,2-13,5.9-4.6,9.6-4.6,17S444,93.7,447,97.7s7.4,6,13,6S470,101.8,473,97.8Z"/><path d="M487.9,117.5l25.2-37.2L489.1,44l23.6.1L525,65.4l12-21.3,22.9.1L535.6,80l25,37.7-24-.1L524,95.4l-12.9,22.1Z"/></g><path class="b" d="M124.7.3c-7.7,0-15.4,0-23-.1C86,.2,70.4.1,54.7.1,42,.1,29.3,0,16.7,0H11.4A11.2,11.2,0,0,0,.3,11.1c0,7.7,0,15.4-.1,23,0,15.7-.1,31.3-.1,47C.1,93.7,0,106.4,0,119v5.3a11.2,11.2,0,0,0,11.1,11.1c7.7,0,15.4,0,23,.1,15.7,0,31.3.1,47,.1,12.6,0,25.3.1,37.9.1h5.3a11.2,11.2,0,0,0,11.1-11.1c0-7.7,0-15.4.1-23,0-15.7.1-31.3.1-47,0-12.6.1-25.3.1-37.9V11.4A11.18,11.18,0,0,0,124.7.3ZM19.3,87.6V59.9H35.4c7.3,0,11.7,4.4,11.7,11.7V87.7l-27.8-.1Zm52.1,27.6c-1.9,4-7.1,7.3-11.8,7.5h-.2l-14.7-.5L96.4,13H119Z"/><path class="c" d="M19.3,87.6V59.9H35.4c7.3,0,11.7,4.4,11.7,11.7V87.7l-27.8-.1Z"/><path class="c" d="M71.4,115.2c-1.9,4-7.1,7.3-11.8,7.5h-.2l-14.7-.5L96.4,13H119Z"/></svg>