<svg xmlns="http://www.w3.org/2000/svg" xmlns:xlink="http://www.w3.org/1999/xlink" width="512" height="430.893" viewBox="0 0 512 430.893">
  <defs>
    <linearGradient id="linear-gradient" x1="2.162" y1="-20.732" x2="1.38" y2="-21.063" gradientUnits="objectBoundingBox">
      <stop offset="0" stop-color="#d2dbfc" stop-opacity="0"/>
      <stop offset="1" stop-color="#b8c1fb"/>
    </linearGradient>
  </defs>
  <g id="lead-icon" transform="translate(0 -40.554)">
    <path id="Path_715" data-name="Path 715" d="M364.823,55.215c-69.1-27.035-164.784-16.764-217.662,31.51-37.336,34.085-8.439,43.8,17.016,106.17C182.6,238.035,0,231.822,0,313.39c0,94.3,132.251,76.424,181.329,87.218,75.036,16.5,140.5,78.242,220.668,70.1,69.795-7.086,96.4-61.855,106.109-124.642,18.082-116.976-26.329-245.094-143.283-290.854Z" fill="url(#linear-gradient)"/>
    <path id="Path_716" data-name="Path 716" d="M413.97,418.554H393.45V225.408c0-11.474,19-20.843,19-20.843V97.554a10,10,0,0,0-10-10h-111a10,10,0,0,0-10,10v107H104.176A20.785,20.785,0,0,0,83.45,225.4v193.15H62.926A12.476,12.476,0,0,0,50.45,431.03v11.55a21.937,21.937,0,0,0,21.9,21.974H404.546a21.937,21.937,0,0,0,21.9-21.974V431.075a12.5,12.5,0,0,0-12.48-12.521Z" fill="#0ff280" opacity="0.11"/>
    <path id="Path_717" data-name="Path 717" d="M411.45,207.423V416.549a5.008,5.008,0,0,1-5.008,5.005H101.45V207.424a20.867,20.867,0,0,1,20.872-20.87H390.579a20.868,20.868,0,0,1,20.871,20.869Z" fill="#fff"/>
    <path id="Path_719" data-name="Path 719" d="M411.45,375.554v41a5,5,0,0,1-5,5h-305v-46Z" fill="#fff"/>
    <path id="Path_720" data-name="Path 720" d="M444.449,413.273v11.383a21.9,21.9,0,0,1-21.9,21.9H90.353a21.9,21.9,0,0,1-21.9-21.9V413.03a12.476,12.476,0,0,1,12.476-12.476H188a5,5,0,0,1,4.435,2.689l6.579,12.621a5,5,0,0,0,4.435,2.689H309.455a5,5,0,0,0,4.434-2.689l6.579-12.623a5,5,0,0,1,4.434-2.689H431.97A12.6,12.6,0,0,1,444.449,413.273Z" fill="#0ff280"/>
    <path id="Path_721" data-name="Path 721" d="M149.45,418.554h-43a5,5,0,0,1-5-5v-13h53v13A5,5,0,0,1,149.45,418.554Z" fill="#fff"/>
    <path id="Path_722" data-name="Path 722" d="M405.45,418.554h-43a5,5,0,0,1-5-5v-13h53v13A5,5,0,0,1,405.45,418.554Z" fill="#fff"/>
    <path id="Path_723" data-name="Path 723" d="M423.451,290.576h-111a10.141,10.141,0,0,1-10-10.276V76.83a10.141,10.141,0,0,1,10-10.276h111a10.141,10.141,0,0,1,10,10.276V280.3A10.14,10.14,0,0,1,423.451,290.576Z" fill="#0ff280"/>
    <path id="Path_724" data-name="Path 724" d="M355.45,77.7V65.554h25V78.085a12.513,12.513,0,0,1-13.626,12.48A12.774,12.774,0,0,1,355.45,77.7Z" fill="#0ff280"/>
    <g id="Group_415" data-name="Group 415">
      <path id="Path_733" data-name="Path 733" d="M431.971,395.554H416.45v-106h7a15,15,0,0,0,15-15v-198a15,15,0,0,0-15-15h-111a15,15,0,0,0-15,15v105H118.85a22.4,22.4,0,0,0-22.4,22.4v66.111a1.083,1.083,0,0,0,.29.742c4.358,4.569,9.71,1.551,9.71-2.719V207.4A15.845,15.845,0,0,1,122.3,191.554H297.45v83.67a14.33,14.33,0,0,0,14.33,14.33h72.4a1.9,1.9,0,0,0,1.364-.594c4.118-4.3,1.142-9.406-3.028-9.406H313.226a5.776,5.776,0,0,1-5.776-5.776V76.554a5,5,0,0,1,5-5h38v7.034c0,10.4,8.52,18.792,18.89,17.973a17.542,17.542,0,0,0,16.11-17.476v-8.53h38a5,5,0,0,1,5,5v199a5,5,0,0,1-5,5h-12a5,5,0,0,0-5,5v86h-300V295.738a5.125,5.125,0,0,0-3.958-5.083,5.014,5.014,0,0,0-6.042,4.925v99.975H80.926A17.474,17.474,0,0,0,63.45,413.029v11.629a26.9,26.9,0,0,0,26.9,26.9h332.2a26.9,26.9,0,0,0,26.9-26.9V413.08a17.523,17.523,0,0,0-17.479-17.526Zm-56.522-317c0,5.255-4.774,9.344-9.938,7.588a7.686,7.686,0,0,1-5.062-7.331V70.554h15Zm30,335h-43v-8h43Zm1-33v15H323.509a10.175,10.175,0,0,0-9,5.411l-6.687,12.588H203.133l-6.688-12.59a10.176,10.176,0,0,0-9-5.41H106.449v-15Zm-257,33h-43v-8h43Zm288.995,11a17.02,17.02,0,0,1-17,17H90.347a16.9,16.9,0,0,1-16.9-16.9V413.03a7.476,7.476,0,0,1,7.476-7.476H96.45v8a10,10,0,0,0,10,10h43a10,10,0,0,0,10-10v-8h27.943l6.56,12.587a9.955,9.955,0,0,0,8.832,5.413H308.761a10,10,0,0,0,8.869-5.379l6.577-12.62h28.242v8a10,10,0,0,0,10,10h43a10,10,0,0,0,10-10v-8h15.524a7.476,7.476,0,0,1,7.476,7.476v11.524Z" fill="#0ff280"/>
      <path id="Path_735" data-name="Path 735" d="M409.129,139.823a3.031,3.031,0,0,0-1.139-.269H349.609l-3.083-9.538a5,5,0,0,0-4.758-3.462H327.62a5.121,5.121,0,0,0-5.084,3.968,5,5,0,0,0,4.9,6.032h10.613l12.285,38h-.745a5.121,5.121,0,0,0-5.084,3.968,5,5,0,0,0,4.9,6.032h56.363a.752.752,0,0,0,.74-.619l7.4-41.428a.376.376,0,0,0-.2-.4ZM397.94,174.554H360.855l-7.759-24h49.129Z" transform="translate(-4 1)" fill="#fff"/>
      <path id="Path_736" data-name="Path 736" d="M360.1,215.039a13.012,13.012,0,1,1,13.012-13.012A13.027,13.027,0,0,1,360.1,215.039Z" transform="translate(-4 1)" fill="#fff"/>
      <path id="Path_737" data-name="Path 737" d="M397.44,215.039a13.012,13.012,0,1,1,13.013-13.012A13.027,13.027,0,0,1,397.44,215.039Z" transform="translate(-4 1)" fill="#fff"/>
      <path id="Path_743" data-name="Path 743" d="M401.615,261.554H334.327a5.12,5.12,0,0,1-5.084-3.968,5.005,5.005,0,0,1,4.9-6.032h67.288a5.123,5.123,0,0,1,5.085,3.968,5.006,5.006,0,0,1-4.9,6.032Z" transform="translate(3.288 0.001)" fill="#fff"/>
      <path id="Path_744" data-name="Path 744" d="M347.092,144.714l11.2,34.392h43.771l7.643-34.392Z" transform="translate(-4 1)" fill="#fff"/>
    </g>
  </g>
</svg>
