<svg xmlns="http://www.w3.org/2000/svg" width="85.4" height="85.4" viewBox="0 0 85.4 85.4">
  <g id="Group_15" data-name="Group 15" transform="translate(-1377 181)">
    <circle id="Ellipse_7" data-name="Ellipse 7" cx="42.7" cy="42.7" r="42.7" transform="translate(1377 -181)" fill="#14e3dc" opacity="0.17"/>
    <path id="Path_22" data-name="Path 22" d="M18.4,18.4H68.6V68.6H18.4Z" transform="translate(1376.2 -181.8)" fill="none"/>
    <path id="incomplete_circle_FILL1_wght400_GRAD0_opsz48" d="M24,44a19.352,19.352,0,0,1-7.75-1.575A20.15,20.15,0,0,1,5.575,31.75,19.352,19.352,0,0,1,4,24,19.589,19.589,0,0,1,9.85,9.85L24,24V4a19.475,19.475,0,0,1,7.8,1.575A19.969,19.969,0,0,1,42.425,16.2a19.978,19.978,0,0,1,0,15.55,20.5,20.5,0,0,1-4.275,6.375,19.988,19.988,0,0,1-6.35,4.3A19.475,19.475,0,0,1,24,44Z" transform="translate(1396 -162)" fill="#14e3dc"/>
  </g>
</svg>
