<?xml version="1.0" encoding="utf-8"?>
<!-- Generator: Adobe Illustrator 26.0.1, SVG Export Plug-In . SVG Version: 6.00 Build 0)  -->
<svg version="1.1" id="Layer_1" xmlns="http://www.w3.org/2000/svg" xmlns:xlink="http://www.w3.org/1999/xlink" x="0px" y="0px"
	 viewBox="0 0 1977 878" style="enable-background:new 0 0 1977 878;" xml:space="preserve">
<style type="text/css">
	.st0{fill:none;}
	.st1{opacity:0.56;}
	.st2{fill:none;stroke:#14E3DC;stroke-width:2;}
	.st3{fill:none;stroke:#FBC719;stroke-width:1.9992;stroke-miterlimit:3.9985;stroke-dasharray:12.995;}
	.st4{fill:#FBC719;}
	.st5{fill:#14E3DC;}
</style>
<rect class="st0" width="1977" height="878"/>
<g id="Mask_Group_14" transform="translate(-2753 -1147)">
	<g id="Group_413" transform="translate(9 149)" class="st1">
		<g id="Group_4" transform="translate(2735.183 1044.05)">
			<path id="Path_13" class="st2" d="M0,546.9c0,0,147-70.3,382.5,26.4s384.4,233.9,528.2,175s230.6-235.4,229.7-235.8
				s132.9-284.9,226.9-364.4s199.8-104.6,405.9,48.5s279-16.2,279-16.2"/>
			<path id="Path_14" class="st3" d="M68.6,386c0,0,113.5,431.2,436.4,415.4c322.9-15.7,286.2-226.7,446.9-420.6
				s344.7-80,545.2-65.9C1697.5,329,1824,76.8,1824,76.8s113.3-153.7,210.8-98.6"/>
			<circle id="Ellipse_1" class="st4" cx="75.5" cy="401.6" r="37.4"/>
			<circle id="Ellipse_2" class="st5" cx="1304.5" cy="217.8" r="26.1"/>
		</g>
	</g>
</g>
</svg>
