<svg id="Capa_1" enable-background="new 0 0 512 512" height="512" viewBox="0 0 512 512" width="512" xmlns="http://www.w3.org/2000/svg" xmlns:xlink="http://www.w3.org/1999/xlink"><linearGradient id="SVGID_1_" gradientUnits="userSpaceOnUse" x1="169.212" x2="169.212" y1="378.311" y2="307.28"><stop offset="0" stop-color="#c3ffe8"/><stop offset=".9973" stop-color="#f0fff4"/></linearGradient><linearGradient id="SVGID_2_" gradientUnits="userSpaceOnUse" x1="256" x2="256" y1="512" y2="0"><stop offset="0" stop-color="#00b59c"/><stop offset="1" stop-color="#9cffac"/></linearGradient><g><g><g><path d="m200.34 311.675c-5.859-5.859-15.352-5.859-21.211 0l-41.045 41.03c-5.859 5.859-5.859 15.352 0 21.211 5.86 5.86 15.352 5.859 21.211 0l41.045-41.03c5.859-5.86 5.859-15.352 0-21.211z" fill="url(#SVGID_1_)"/></g></g><g><g><path d="m317 0c-107.52 0-195 87.48-195 195s87.48 195 195 195 195-87.48 195-195-87.48-195-195-195zm-178.916 331.494c-5.859-5.859-15.352-5.859-21.211 0l-112.478 112.479c-5.859 5.859-5.859 15.352 0 21.211l42.422 42.422c5.86 5.859 15.352 5.859 21.211 0l112.479-112.479c5.859-5.859 5.859-15.352 0-21.211z" fill="url(#SVGID_2_)"/></g></g></g></svg>