<svg xmlns="http://www.w3.org/2000/svg" width="85.4" height="85.4" viewBox="0 0 85.4 85.4">
  <g id="Group_13" data-name="Group 13" transform="translate(-1507.95 181)">
    <circle id="Ellipse_9" data-name="Ellipse 9" cx="42.7" cy="42.7" r="42.7" transform="translate(1507.95 -181)" fill="#14e3dc" opacity="0.17"/>
    <path id="Path_24" data-name="Path 24" d="M18.4,18.4H68.6V68.6H18.4Z" transform="translate(1507.15 -181.8)" fill="none"/>
    <path id="settings_suggest_FILL1_wght400_GRAD0_opsz48" d="M37.65,17.8l-2.2-4.7-4.7-2.2,4.7-2.2L37.65,4l2.2,4.7,4.7,2.2-4.7,2.2Zm4.2,14.45-1.5-3.15L37.2,27.6l3.15-1.5,1.5-3.15,1.5,3.15,3.15,1.5-3.15,1.5ZM15.7,44l-.5-4.6a5.539,5.539,0,0,1-2.75-1.3l-3.9,1.65-4.4-7.2,3.8-2.5a4.625,4.625,0,0,1,0-3l-3.8-2.5,4.4-7.2L12.45,19a5.539,5.539,0,0,1,2.75-1.3l.5-4.6h8.4l.5,4.6A5.539,5.539,0,0,1,27.35,19l3.9-1.65,4.4,7.2-3.8,2.5a4.625,4.625,0,0,1,0,3l3.8,2.5-4.4,7.2-3.9-1.65a5.539,5.539,0,0,1-2.75,1.3L24.1,44Zm4.2-9.7a5.56,5.56,0,0,0,5.75-5.75A5.56,5.56,0,0,0,19.9,22.8a5.56,5.56,0,0,0-5.75,5.75A5.56,5.56,0,0,0,19.9,34.3Z" transform="translate(1528.325 -165.125)" fill="#14e3dc"/>
  </g>
</svg>
