<svg width="1300" height="334" fill="none" xmlns="http://www.w3.org/2000/svg"><path d="M0 312.843v-63.476c39.03 18.136 72.055 27.204 96.074 27.204 31.524 0 46.536-12.09 46.536-34.76 0-12.091-7.506-21.159-21.016-31.738-6.005-4.534-19.515-12.09-40.532-21.158-21.016-9.068-36.027-18.136-45.034-27.204-21.016-18.136-33.026-42.317-33.026-69.52 0-27.204 9.007-49.874 28.522-66.499C51.04 9.068 78.06 0 112.587 0c28.522 0 60.046 7.557 96.074 22.67l-22.518 52.896c-31.524-12.09-54.041-19.647-70.554-19.647-16.513 1.511-28.522 4.534-34.527 10.579-7.505 6.045-10.508 12.09-10.508 19.647 0 7.557 1.501 13.602 4.504 18.136 3.002 4.534 7.506 9.068 13.51 13.602 6.005 4.534 22.518 12.09 48.037 25.692 27.021 12.091 45.035 25.693 57.044 40.806 12.009 15.113 16.513 31.737 16.513 52.896 0 28.715-10.508 52.896-31.524 69.52-21.017 16.625-49.539 25.693-85.566 25.693-36.028 0-66.051-6.045-93.072-19.647zm262.702 15.112V80.099h51.039l9.007 31.738h3.002c15.012-24.181 40.531-36.272 75.058-36.272 28.522 0 49.538 7.557 64.55 22.67 15.011 15.113 24.018 39.294 24.018 68.009v161.711h-67.552V184.38c0-18.136-3.002-31.737-9.007-40.805-6.004-9.068-16.512-13.602-30.023-13.602-18.014 0-33.025 6.045-40.531 18.136-7.506 12.09-12.009 33.249-12.009 61.964v116.371l-67.552 1.511zm280.715-123.928c0-40.805 10.508-72.543 31.524-93.701 21.017-22.67 49.539-34.76 88.569-34.76 24.018 0 45.034 4.533 61.547 15.113 18.014 10.579 31.524 25.692 42.032 43.828 9.007 19.647 15.012 42.317 15.012 68.009 0 40.806-10.508 72.543-31.524 95.213-21.017 22.67-51.04 34.76-88.569 34.76-24.018 0-45.034-4.534-63.048-15.113-18.014-10.579-31.524-25.692-42.033-45.339-9.006-19.647-13.51-42.317-13.51-68.01zm79.561-55.918c-7.505 12.09-12.009 30.226-12.009 54.407 0 24.181 4.504 43.828 12.009 55.919 7.506 12.09 21.017 18.136 39.03 18.136 18.014 0 31.525-6.046 39.03-18.136 7.506-12.091 12.01-30.227 12.01-55.919 0-24.181-4.504-42.317-12.01-54.407-7.505-12.091-21.016-18.136-39.03-18.136-18.013 0-30.023 6.045-39.03 18.136zM792.61 80.097h70.555c14.713 43.05 58.929 177.992 58.929 177.992s43.65-134.167 58.161-177.992h70.555l-96.075 247.856h-69.053L792.61 80.097z" fill="#8178D9"/><path opacity=".5" d="M1053.81 327.952l36.03-164.733h43.53l-34.52 164.733h-45.04zm42.03-204.028c0-9.068 3.01-15.113 7.51-19.647 4.5-4.534 10.51-6.045 19.51-6.045 12.01 0 19.52 6.045 19.52 18.136 0 7.556-1.5 13.602-6.01 19.647-4.5 4.534-9 7.556-18.01 7.556-15.01-1.511-22.52-7.556-22.52-19.647zm72.06 190.425c-12.01-12.091-16.51-27.204-16.51-46.851s3-37.783 10.5-54.408c7.51-16.624 16.52-28.715 30.03-37.783 13.51-9.067 28.52-13.601 48.03-13.601 18.02 0 33.03 6.045 43.54 18.135 10.51 12.091 16.51 27.204 16.51 48.363 0 21.158-3 39.294-10.51 54.407-7.5 15.113-16.51 28.715-30.02 37.783-13.51 9.068-28.52 13.602-46.54 13.602-18.01 0-33.02-9.068-45.03-19.647zm27.02-46.851c0 18.136 7.51 27.203 22.52 27.203 7.5 0 13.51-3.022 19.51-9.067 6.01-6.046 10.51-15.114 13.51-25.693s4.51-22.67 4.51-34.76c0-19.647-7.51-28.715-21.02-28.715-7.51 0-13.51 3.022-19.52 9.068-6 6.045-10.5 15.113-13.51 25.692-3 12.091-6 24.181-6 36.272z" fill="#8178D9"/></svg>