<svg xmlns="http://www.w3.org/2000/svg" width="85.4" height="85.4" viewBox="0 0 85.4 85.4">
  <g id="Group_16" data-name="Group 16" transform="translate(-1377 304)">
    <g id="Group_11" data-name="Group 11">
      <circle id="Ellipse_6" data-name="Ellipse 6" cx="42.7" cy="42.7" r="42.7" transform="translate(1377 -304)" fill="#14e3dc" opacity="0.17"/>
      <path id="Path_20" data-name="Path 20" d="M18.4,18.4H68.6V68.6H18.4Z" transform="translate(1376.2 -304.8)" fill="none"/>
      <path id="schedule_FILL1_wght400_GRAD0_opsz48" d="M24.964,45.928a20.284,20.284,0,0,1-8.123-1.651A21.121,21.121,0,0,1,5.651,33.087a20.812,20.812,0,0,1,0-16.247A21.121,21.121,0,0,1,16.84,5.651a20.812,20.812,0,0,1,16.247,0A21.121,21.121,0,0,1,44.277,16.84a20.812,20.812,0,0,1,0,16.247A21.121,21.121,0,0,1,33.087,44.277,20.284,20.284,0,0,1,24.964,45.928Zm7.7-10.849,2.358-2.358-8.333-8.386V13.8H23.549V25.593Z" transform="translate(1395.036 -285.964)" fill="#14e3dc"/>
    </g>
  </g>
</svg>
