<svg xmlns="http://www.w3.org/2000/svg" width="85.4" height="85.4" viewBox="0 0 85.4 85.4">
  <g id="Group_12" data-name="Group 12" transform="translate(-1637 197.7)">
    <circle id="Ellipse_11" data-name="Ellipse 11" cx="42.7" cy="42.7" r="42.7" transform="translate(1637 -197.7)" fill="#14e3dc" opacity="0.17"/>
    <path id="verified_FILL1_wght400_GRAD0_opsz48" d="M17.3,45l-3.8-6.5L5.95,36.95,6.8,29.6,2,24l4.8-5.55L5.95,11.1,13.5,9.55,17.3,3,24,6.1,30.7,3l3.85,6.55,7.5,1.55-.85,7.35L46,24l-4.8,5.6.85,7.35-7.5,1.55L30.7,45,24,41.9Zm4.55-14.35L33.2,19.4l-2.25-2.05-9.1,9L17.1,21.4l-2.3,2.25Z" transform="translate(1656 -179)" fill="#14e4dc"/>
  </g>
</svg>
